<?xml version="1.0" encoding="utf-8"?>
<!-- Generator: Adobe Illustrator 21.1.0, SVG Export Plug-In . SVG Version: 6.00 Build 0)  -->
<svg version="1.1" id="Layer_1" xmlns="http://www.w3.org/2000/svg" xmlns:xlink="http://www.w3.org/1999/xlink" x="0px" y="0px"
	 viewBox="0 0 600 600" style="enable-background:new 0 0 600 600;" xml:space="preserve">
<style type="text/css">
	.st0{fill:#FF0000;}
</style>
<circle class="st0" cx="120.2" cy="345.2" r="17.6"/>
<g>
	<path d="M239.9,295.8c2.6-0.7,4.9-1.8,6.7-3.3c1.8-1.5,3.2-3.3,4.2-5.5c1-2.2,1.5-4.7,1.5-7.6c0-1.5-0.2-3-0.6-4.4
		c-0.4-1.4-1-2.7-1.8-3.9c-0.8-1.2-1.9-2.2-3.1-3.1c-1.3-0.9-2.7-1.5-4.5-2c2.8-1.1,5-2.8,6.5-5c1.5-2.2,2.2-4.7,2.2-7.5
		c0-2.8-0.5-5.2-1.5-7.3c-1-2.1-2.5-3.7-4.4-5.1c-1.9-1.3-4.2-2.3-6.8-3c-2.7-0.7-5.6-1-8.9-1h-20.1v59.7H231
		C234.3,296.9,237.3,296.5,239.9,295.8z M220.8,246.5h8.5c3.3,0,5.7,0.6,7.5,1.9c1.7,1.2,2.6,3.2,2.6,6c0,2.5-0.9,4.5-2.6,5.8
		c-1.7,1.3-4.2,2-7.4,2h-8.6V246.5z M220.8,270.5h10.7c3.1,0,5.5,0.8,7,2.3c1.5,1.5,2.2,3.7,2.2,6.4c0,2.5-0.8,4.4-2.5,6
		c-1.7,1.5-4.1,2.3-7.2,2.3h-10.3V270.5z"/>
	<polygon points="308.9,287.6 280.3,287.6 280.3,270.7 304.8,270.7 304.8,261.6 280.3,261.6 280.3,246.5 308.8,246.5 308.8,237.2 
		268.7,237.2 268.7,296.9 308.9,296.9 	"/>
	<path d="M369.8,296.3L357,271.7c1.6-0.7,3.1-1.6,4.4-2.6c1.3-1,2.5-2.2,3.4-3.5c0.9-1.4,1.7-2.9,2.2-4.6c0.5-1.7,0.8-3.6,0.8-5.8
		c0-3-0.5-5.5-1.5-7.8s-2.5-4.1-4.4-5.6c-1.9-1.5-4.2-2.6-6.9-3.4c-2.7-0.8-5.7-1.2-9-1.2h-20v59.7h11.5v-22.3h8.7l11.2,22.3h12.3
		V296.3z M353.5,262.7c-1.8,1.7-4.3,2.5-7.5,2.5h-8.5v-18.7h8.5c3.4,0,5.9,0.8,7.6,2.5c1.7,1.7,2.6,4,2.6,7
		C356.2,258.8,355.3,261.1,353.5,262.7z"/>
	<polygon points="424.8,287.6 396.9,287.6 396.9,237.2 385.3,237.2 385.3,296.9 424.8,296.9 	"/>
	<polygon points="442.7,246.5 454.1,246.5 454.1,287.6 442.7,287.6 442.7,296.9 477.2,296.9 477.2,287.6 465.6,287.6 465.6,246.5 
		477.2,246.5 477.2,237.2 442.7,237.2 	"/>
	<polygon points="523.4,237.2 523.4,275.5 506.9,237.2 495.3,237.2 495.3,296.9 506.9,296.9 506.9,258.4 523.5,296.9 535,296.9 
		535,237.2 	"/>
	<path d="M230,332.1c-0.4-0.6-1-1.1-1.6-1.6c-0.6-0.4-1.4-0.8-2.3-1c1.4-0.6,2.5-1.4,3.3-2.6c0.7-1.1,1.1-2.4,1.1-3.8
		c0-1.4-0.3-2.7-0.8-3.7c-0.5-1-1.3-1.9-2.2-2.6c-1-0.7-2.1-1.2-3.5-1.5c-1.4-0.3-2.9-0.5-4.5-0.5h-10.2v30.5h11.1
		c1.7,0,3.2-0.2,4.5-0.6c1.3-0.4,2.5-0.9,3.4-1.7c0.9-0.8,1.7-1.7,2.2-2.8c0.5-1.1,0.8-2.4,0.8-3.9c0-0.8-0.1-1.5-0.3-2.2
		C230.7,333.3,230.4,332.7,230,332.1z M215.2,319.6h4.4c1.7,0,2.9,0.3,3.8,1c0.9,0.6,1.3,1.6,1.3,3.1c0,1.3-0.5,2.3-1.3,2.9
		c-0.9,0.7-2.1,1-3.8,1h-4.4V319.6z M224.1,339.3c-0.8,0.8-2.1,1.2-3.7,1.2h-5.2v-8.7h5.5c1.6,0,2.8,0.4,3.6,1.2
		c0.8,0.8,1.1,1.9,1.1,3.3C225.3,337.5,224.9,338.5,224.1,339.3z"/>
	<path d="M257.9,331c0.7-0.5,1.3-1.1,1.7-1.8c0.5-0.7,0.9-1.5,1.1-2.3c0.3-0.9,0.4-1.9,0.4-2.9c0-1.5-0.3-2.8-0.8-4
		c-0.5-1.1-1.3-2.1-2.2-2.9c-1-0.8-2.1-1.3-3.5-1.7c-1.4-0.4-2.9-0.6-4.6-0.6h-10.2v30.5h5.9v-11.4h4.5l5.7,11.4h6.3V345l-6.5-12.6
		C256.5,332,257.3,331.6,257.9,331z M253.9,327.8c-0.9,0.8-2.2,1.3-3.8,1.3h-4.4v-9.5h4.3c1.7,0,3,0.4,3.9,1.3
		c0.9,0.8,1.3,2,1.3,3.5C255.3,325.8,254.8,327,253.9,327.8z"/>
	<path d="M279.3,314.8l-10,30.5h6.2l1.8-6.4h9.1l1.8,6.4h6.2l-9.8-30.5H279.3z M278.8,333.9l3.2-11.2l3.1,11.2H278.8z"/>
	<polygon points="316.6,334.3 308.2,314.8 302.2,314.8 302.2,345.2 308.2,345.2 308.2,325.6 316.6,345.2 322.5,345.2 322.5,314.8 
		316.6,314.8 	"/>
	<path d="M350.1,318.7c-1.2-1.2-2.6-2.2-4.2-2.9c-1.6-0.7-3.5-1-5.5-1h-7.9v30.5h8.2c1.9,0,3.7-0.3,5.3-1c1.6-0.7,3-1.6,4.1-2.9
		c1.1-1.2,2-2.7,2.7-4.4c0.6-1.7,1-3.6,1-5.6v-2.5c0-2-0.3-3.9-1-5.6C352.2,321.4,351.3,319.9,350.1,318.7z M347.8,331.3
		c0,1.5-0.2,2.7-0.5,3.9c-0.3,1.1-0.8,2.1-1.4,2.9c-0.6,0.8-1.3,1.4-2.2,1.8c-0.9,0.4-1.9,0.6-3,0.6h-2.3v-21h2
		c1.2,0,2.3,0.2,3.2,0.7c0.9,0.4,1.7,1.1,2.3,1.9c0.6,0.8,1.1,1.8,1.4,2.9c0.3,1.1,0.5,2.4,0.5,3.7V331.3z"/>
	<polygon points="368.9,331.9 381.4,331.9 381.4,327.2 368.9,327.2 368.9,319.6 383.4,319.6 383.4,314.8 363,314.8 363,345.2 
		383.5,345.2 383.5,340.5 368.9,340.5 	"/>
	<polygon points="406.9,334.3 398.5,314.8 392.5,314.8 392.5,345.2 398.5,345.2 398.5,325.6 406.9,345.2 412.8,345.2 412.8,314.8 
		406.9,314.8 	"/>
	<path d="M443.6,332.1c-0.4-0.6-1-1.1-1.6-1.6c-0.6-0.4-1.4-0.8-2.3-1c1.5-0.6,2.5-1.4,3.3-2.6c0.7-1.1,1.1-2.4,1.1-3.8
		c0-1.4-0.3-2.7-0.8-3.7c-0.5-1-1.3-1.9-2.2-2.6c-1-0.7-2.1-1.2-3.5-1.5c-1.4-0.3-2.9-0.5-4.5-0.5h-10.2v30.5H434
		c1.7,0,3.2-0.2,4.5-0.6c1.3-0.4,2.5-0.9,3.4-1.7c0.9-0.8,1.7-1.7,2.2-2.8c0.5-1.1,0.8-2.4,0.8-3.9c0-0.8-0.1-1.5-0.3-2.2
		C444.4,333.3,444,332.7,443.6,332.1z M428.8,319.6h4.4c1.7,0,2.9,0.3,3.8,1c0.9,0.6,1.3,1.6,1.3,3.1c0,1.3-0.5,2.3-1.3,2.9
		c-0.9,0.7-2.1,1-3.8,1h-4.4V319.6z M437.7,339.3c-0.8,0.8-2.1,1.2-3.7,1.2h-5.2v-8.7h5.5c1.6,0,2.8,0.4,3.6,1.2
		c0.8,0.8,1.1,1.9,1.1,3.3C439,337.5,438.6,338.5,437.7,339.3z"/>
	<path d="M467.9,314.8l0,20.2c0,2-0.4,3.5-1.2,4.5c-0.8,1-1.9,1.5-3.3,1.5c-1.4,0-2.4-0.5-3.1-1.5c-0.7-1-1.1-2.5-1.1-4.5l0-20.2
		h-5.9l0,20.2c0,1.7,0.2,3.2,0.7,4.5c0.5,1.3,1.2,2.5,2,3.4c0.9,0.9,1.9,1.6,3.2,2.1c1.2,0.5,2.6,0.7,4.2,0.7c1.6,0,3.1-0.2,4.4-0.7
		c1.3-0.5,2.4-1.2,3.2-2.1c0.9-0.9,1.6-2,2-3.4c0.5-1.3,0.7-2.8,0.7-4.5l0-20.2H467.9z"/>
	<path d="M501.7,331c0.7-0.5,1.3-1.1,1.7-1.8c0.5-0.7,0.9-1.5,1.1-2.3c0.3-0.9,0.4-1.9,0.4-2.9c0-1.5-0.3-2.8-0.8-4
		c-0.5-1.1-1.3-2.1-2.2-2.9c-1-0.8-2.1-1.3-3.5-1.7c-1.4-0.4-2.9-0.6-4.6-0.6h-10.2v30.5h5.9v-11.4h4.5l5.7,11.4h6.3V345l-6.5-12.6
		C500.3,332,501.1,331.6,501.7,331z M497.7,327.8c-0.9,0.8-2.2,1.3-3.8,1.3h-4.4v-9.5h4.3c1.7,0,3,0.4,3.9,1.3
		c0.9,0.8,1.3,2,1.3,3.5C499.1,325.8,498.6,327,497.7,327.8z"/>
	<path d="M524.1,329.7v4.4h5l0,5.5c-0.2,0.2-0.4,0.4-0.7,0.5c-0.3,0.2-0.6,0.3-1,0.4c-0.4,0.1-0.8,0.2-1.3,0.3
		c-0.4,0.1-0.9,0.1-1.4,0.1c-1.9,0-3.4-0.8-4.3-2.3c-0.9-1.5-1.4-3.7-1.4-6.5v-4.2c0-1.4,0.1-2.7,0.4-3.8c0.3-1.1,0.7-2,1.1-2.7
		s1-1.3,1.7-1.7c0.6-0.4,1.3-0.6,2.1-0.6c1.6,0,2.7,0.4,3.5,1.2c0.7,0.8,1.2,2,1.4,3.5h5.7c-0.2-1.5-0.5-2.8-1-4
		c-0.5-1.2-1.2-2.2-2.1-3c-0.9-0.8-2-1.4-3.2-1.9c-1.3-0.4-2.8-0.6-4.5-0.6c-1.6,0-3,0.3-4.4,0.9c-1.3,0.6-2.5,1.5-3.5,2.7
		c-1,1.2-1.8,2.6-2.3,4.3c-0.6,1.7-0.8,3.6-0.8,5.7v4.1c0,2.1,0.3,4,0.8,5.7c0.5,1.7,1.3,3.1,2.3,4.3c1,1.2,2.2,2,3.6,2.7
		c1.4,0.6,3,0.9,4.7,0.9c1.3,0,2.5-0.1,3.6-0.4c1.1-0.2,2.1-0.5,3-0.9c0.9-0.4,1.7-0.8,2.3-1.3s1.2-0.9,1.5-1.4l0-12H524.1z"/>
	<path d="M115.1,263.5c0.6,0.6,1.3,1.1,2.1,1.4c0.8,0.3,1.7,0.5,2.7,0.5c1.1,0,2-0.2,2.9-0.5c0.8-0.3,1.6-0.8,2.1-1.4
		c0.6-0.6,1-1.3,1.3-2.2c0.3-0.9,0.5-1.9,0.5-3l0-13.4H123l0,13.4c0,1.3-0.3,2.3-0.8,2.9c-0.5,0.7-1.2,1-2.2,1c-0.9,0-1.6-0.3-2-1
		c-0.5-0.7-0.7-1.6-0.7-2.9l0-13.4h-3.9l0,13.4c0,1.1,0.2,2.1,0.5,3C114.1,262.2,114.6,262.9,115.1,263.5z"/>
	<path d="M153,300.4c0.7,0.8,1.4,1.4,2.4,1.8s2,0.6,3.1,0.6c0.8,0,1.6-0.1,2.4-0.2c0.7-0.2,1.4-0.4,2-0.6c0.6-0.3,1.1-0.5,1.5-0.9
		c0.4-0.3,0.8-0.6,1-0.9l0-7.9h-7.2v2.9h3.3l0,3.7c-0.1,0.1-0.3,0.2-0.4,0.3c-0.2,0.1-0.4,0.2-0.7,0.3c-0.3,0.1-0.5,0.1-0.8,0.2
		c-0.3,0-0.6,0.1-0.9,0.1c-1.3,0-2.2-0.5-2.8-1.5c-0.6-1-0.9-2.4-0.9-4.3v-2.8c0-1,0.1-1.8,0.3-2.5c0.2-0.7,0.4-1.3,0.7-1.8
		c0.3-0.5,0.7-0.9,1.1-1.1c0.4-0.3,0.9-0.4,1.4-0.4c1,0,1.8,0.3,2.3,0.8c0.5,0.5,0.8,1.3,0.9,2.3h3.8c-0.1-1-0.3-1.8-0.6-2.6
		c-0.3-0.8-0.8-1.4-1.4-2s-1.3-1-2.1-1.2c-0.8-0.3-1.8-0.4-3-0.4c-1,0-2,0.2-2.9,0.6c-0.9,0.4-1.7,1-2.3,1.8
		c-0.7,0.8-1.2,1.7-1.6,2.8c-0.4,1.1-0.6,2.4-0.6,3.8v2.7c0,1.4,0.2,2.7,0.5,3.8C151.8,298.7,152.4,299.7,153,300.4z"/>
	<path d="M76.8,301.3c0.6,0.5,1.3,0.9,2.1,1.2c0.8,0.3,1.8,0.4,2.8,0.4c1,0,1.9-0.2,2.7-0.5c0.8-0.3,1.6-0.8,2.2-1.3
		c0.6-0.6,1.1-1.3,1.5-2c0.4-0.8,0.5-1.7,0.5-2.6l0-14h-3.9v14c0,0.5-0.1,0.9-0.2,1.3c-0.1,0.4-0.3,0.8-0.6,1.1
		c-0.3,0.3-0.6,0.5-0.9,0.7c-0.4,0.2-0.8,0.3-1.2,0.3c-1,0-1.7-0.2-2.2-0.7c-0.5-0.5-0.7-1.3-0.7-2.3h-3.9c0,1,0.2,2,0.5,2.7
		C75.8,300.1,76.2,300.7,76.8,301.3z"/>
	<path d="M122.4,292.3c-0.6-0.6-1.4-1-2.3-1c-0.9,0-1.7,0.4-2.3,1L65,345.2l37.5,0c0-9.7,7.9-17.6,17.6-17.6
		c9.7,0,17.6,7.9,17.6,17.6h37.5L122.4,292.3L122.4,292.3z"/>
	<path d="M175.3,238.6c-0.1-0.1-0.1-0.3-0.2-0.4c-0.1-0.1-0.2-0.2-0.3-0.3c-0.1-0.1-0.2-0.2-0.3-0.3c-0.1-0.1-0.3-0.2-0.4-0.2
		c-0.1-0.1-0.3-0.1-0.4-0.1c-0.3-0.1-0.6-0.1-0.9,0c-0.2,0-0.3,0.1-0.4,0.1c-0.1,0.1-0.3,0.1-0.4,0.2c-0.1,0.1-0.3,0.2-0.4,0.3
		c-0.1,0.1-0.2,0.2-0.3,0.3c-0.1,0.1-0.2,0.3-0.2,0.4c-0.1,0.1-0.1,0.3-0.1,0.4c0,0.2,0,0.3,0,0.5c0,0.6,0.2,1.2,0.7,1.6
		c0.1,0.1,0.2,0.2,0.4,0.3c0.1,0.1,0.3,0.2,0.4,0.2c0.1,0.1,0.3,0.1,0.4,0.1c0.2,0,0.3,0,0.5,0c0.6,0,1.2-0.2,1.6-0.7
		c0.4-0.4,0.7-1,0.7-1.6c0-0.2,0-0.3,0-0.5C175.4,238.9,175.4,238.7,175.3,238.6z"/>
	<path d="M140.1,274.7c0.6,0,1.2-0.2,1.6-0.7c0.9-0.9,0.9-2.4,0-3.3c-0.9-0.9-2.4-0.9-3.3,0c-0.9,0.9-0.9,2.4,0,3.3
		C138.9,274.5,139.5,274.7,140.1,274.7z"/>
	<path d="M133.5,281.3c0.6,0,1.2-0.2,1.6-0.7c0.9-0.9,0.9-2.4,0-3.3c-0.9-0.9-2.4-0.9-3.3,0c-0.9,0.9-0.9,2.4,0,3.3
		C132.3,281.1,132.9,281.3,133.5,281.3z"/>
	<path d="M160,255c0.6,0,1.2-0.2,1.6-0.7c0.9-0.9,0.9-2.4,0-3.3c-0.9-0.9-2.4-0.9-3.3,0c-0.9,0.9-0.9,2.4,0,3.3
		C158.8,254.7,159.4,255,160,255z"/>
	<path d="M153.3,261.6c0.6,0,1.2-0.2,1.6-0.7c0.9-0.9,0.9-2.4,0-3.3c-0.9-0.9-2.4-0.9-3.3,0c-0.9,0.9-0.9,2.4,0,3.3
		C152.1,261.3,152.7,261.6,153.3,261.6z"/>
	<path d="M125.9,283.5c-0.1,0.1-0.3,0.1-0.4,0.2c-0.1,0.1-0.3,0.2-0.4,0.3c-0.1,0.1-0.2,0.2-0.3,0.3c-0.1,0.1-0.2,0.3-0.2,0.4
		c-0.1,0.1-0.1,0.3-0.1,0.4c0,0.2,0,0.3,0,0.5c0,0.2,0,0.3,0,0.5c0,0.1,0.1,0.3,0.1,0.4c0.1,0.1,0.1,0.3,0.2,0.4
		c0.1,0.1,0.2,0.2,0.3,0.3c0.1,0.1,0.2,0.2,0.4,0.3c0.1,0.1,0.3,0.2,0.4,0.2c0.1,0.1,0.3,0.1,0.4,0.1c0.2,0,0.3,0,0.5,0
		c0.2,0,0.3,0,0.5,0c0.1,0,0.3-0.1,0.4-0.1s0.3-0.1,0.4-0.2c0.1-0.1,0.2-0.2,0.3-0.3c0.1-0.1,0.2-0.2,0.3-0.3
		c0.1-0.1,0.2-0.3,0.2-0.4c0.1-0.1,0.1-0.3,0.1-0.4c0-0.2,0-0.3,0-0.5c0-0.2,0-0.3,0-0.5c0-0.1-0.1-0.3-0.1-0.4
		c-0.1-0.1-0.1-0.3-0.2-0.4c-0.1-0.1-0.2-0.2-0.3-0.3c-0.1-0.1-0.2-0.2-0.3-0.3c-0.1-0.1-0.3-0.2-0.4-0.2c-0.1-0.1-0.3-0.1-0.4-0.1
		c-0.3-0.1-0.6-0.1-0.9,0C126.2,283.4,126.1,283.4,125.9,283.5z"/>
	<path d="M111.2,286.5c0.1,0.1,0.1,0.3,0.2,0.4c0.1,0.1,0.2,0.3,0.3,0.4c0.1,0.1,0.2,0.2,0.4,0.3c0.1,0.1,0.3,0.2,0.4,0.2
		s0.3,0.1,0.4,0.1c0.2,0,0.3,0,0.5,0s0.3,0,0.5,0c0.1,0,0.3-0.1,0.4-0.1c0.1-0.1,0.3-0.1,0.4-0.2c0.1-0.1,0.2-0.2,0.3-0.3
		c0.1-0.1,0.2-0.2,0.3-0.4c0.1-0.1,0.2-0.3,0.2-0.4c0.1-0.1,0.1-0.3,0.1-0.4c0-0.1,0-0.3,0-0.5c0-0.2,0-0.3,0-0.5
		c0-0.2-0.1-0.3-0.1-0.4c-0.1-0.1-0.1-0.3-0.2-0.4c-0.1-0.1-0.2-0.2-0.3-0.3c-0.1-0.1-0.2-0.2-0.3-0.3c-0.1-0.1-0.3-0.2-0.4-0.2
		c-0.1-0.1-0.3-0.1-0.4-0.1c-0.3-0.1-0.6-0.1-0.9,0c-0.2,0-0.3,0.1-0.4,0.1c-0.1,0.1-0.3,0.1-0.4,0.2c-0.1,0.1-0.3,0.2-0.4,0.3
		c-0.1,0.1-0.2,0.2-0.3,0.3c-0.1,0.1-0.2,0.3-0.2,0.4c-0.1,0.1-0.1,0.3-0.1,0.4c0,0.2,0,0.3,0,0.5c0,0.2,0,0.3,0,0.5
		C111.1,286.2,111.2,286.4,111.2,286.5z"/>
	<path d="M80.5,255c0.6,0,1.2-0.2,1.6-0.7c0.9-0.9,0.9-2.4,0-3.3c-0.9-0.9-2.4-0.9-3.3,0c-0.9,0.9-0.9,2.4,0,3.3
		C79.3,254.7,79.9,255,80.5,255z"/>
	<path d="M106.8,281.3c0.6,0,1.2-0.2,1.6-0.7c0.9-0.9,0.9-2.4,0-3.3c-0.9-0.9-2.4-0.9-3.3,0c-0.9,0.9-0.9,2.4,0,3.3
		C105.6,281.1,106.2,281.3,106.8,281.3z"/>
	<path d="M87.1,261.6c0.6,0,1.2-0.2,1.6-0.7c0.9-0.9,0.9-2.4,0-3.3c-0.9-0.9-2.4-0.9-3.3,0c-0.9,0.9-0.9,2.4,0,3.3
		C85.9,261.3,86.5,261.6,87.1,261.6z"/>
	<path d="M100.2,274.7c0.6,0,1.2-0.2,1.6-0.7c0.9-0.9,0.9-2.4,0-3.3c-0.9-0.9-2.4-0.9-3.3,0c-0.9,0.9-0.9,2.4,0,3.3
		C99,274.5,99.6,274.7,100.2,274.7z"/>
	<path d="M65.2,240.4c0.1,0.1,0.1,0.3,0.2,0.4s0.2,0.2,0.3,0.3c0.1,0.1,0.2,0.2,0.4,0.3c0.1,0.1,0.3,0.2,0.4,0.2
		c0.2,0.1,0.3,0.1,0.4,0.1c0.2,0,0.3,0,0.5,0c0.2,0,0.3,0,0.5,0c0.2,0,0.3-0.1,0.4-0.1c0.1-0.1,0.3-0.1,0.4-0.2
		c0.1-0.1,0.2-0.2,0.3-0.3c0.1-0.1,0.2-0.2,0.3-0.3c0.1-0.1,0.2-0.3,0.2-0.4c0.1-0.1,0.1-0.3,0.1-0.4c0-0.2,0-0.3,0-0.5s0-0.3,0-0.5
		c0-0.2-0.1-0.3-0.1-0.4c-0.1-0.1-0.1-0.3-0.2-0.4c-0.1-0.1-0.2-0.3-0.3-0.4c-0.1-0.1-0.2-0.2-0.3-0.3c-0.1-0.1-0.3-0.2-0.4-0.2
		c-0.2-0.1-0.3-0.1-0.4-0.1c-0.3-0.1-0.6-0.1-0.9,0c-0.2,0-0.3,0.1-0.4,0.1c-0.1,0.1-0.3,0.1-0.4,0.2c-0.1,0.1-0.2,0.2-0.4,0.3
		c-0.1,0.1-0.2,0.2-0.3,0.4c-0.1,0.1-0.2,0.3-0.2,0.4c-0.1,0.1-0.1,0.3-0.1,0.4c0,0.2,0,0.3,0,0.5s0,0.3,0,0.5
		C65.1,240.1,65.1,240.2,65.2,240.4z"/>
</g>
</svg>
