<?xml version="1.0" encoding="utf-8"?>
<!-- Generator: Adobe Illustrator 21.1.0, SVG Export Plug-In . SVG Version: 6.00 Build 0)  -->
<svg version="1.1" id="Layer_1" xmlns="http://www.w3.org/2000/svg" xmlns:xlink="http://www.w3.org/1999/xlink" x="0px" y="0px"
	 viewBox="0 0 600 600" style="enable-background:new 0 0 600 600;" xml:space="preserve">
<style type="text/css">
	.st0{fill:#FF0000;}
</style>
<circle class="st0" cx="120.9" cy="344.6" r="17.9"/>
<g>
	<path d="M79.1,301.3c0.8,0.3,1.8,0.4,2.8,0.4c1,0,1.9-0.2,2.7-0.5c0.8-0.3,1.6-0.8,2.2-1.3c0.6-0.6,1.1-1.3,1.5-2.1
		c0.4-0.8,0.5-1.7,0.6-2.7l0-14.2H85v14.2c0,0.5-0.1,0.9-0.2,1.3c-0.1,0.4-0.3,0.8-0.6,1.1c-0.3,0.3-0.6,0.5-1,0.7
		c-0.4,0.2-0.8,0.3-1.2,0.3c-1,0-1.7-0.2-2.2-0.7s-0.7-1.3-0.7-2.4h-4c0,1.1,0.2,2,0.5,2.8c0.3,0.8,0.8,1.4,1.4,2
		C77.6,300.6,78.3,301,79.1,301.3z"/>
	<path d="M115.8,261.9c0.6,0.6,1.3,1.1,2.1,1.4c0.8,0.3,1.8,0.5,2.8,0.5c1.1,0,2.1-0.2,2.9-0.5s1.6-0.8,2.2-1.4
		c0.6-0.6,1-1.4,1.4-2.3c0.3-0.9,0.5-1.9,0.5-3l0-13.5h-3.9l0,13.5c0,1.3-0.3,2.3-0.8,3c-0.5,0.7-1.2,1-2.2,1c-0.9,0-1.6-0.3-2.1-1
		c-0.5-0.7-0.7-1.7-0.7-3l0-13.5H114l0,13.5c0,1.1,0.2,2.2,0.5,3.1C114.7,260.5,115.2,261.3,115.8,261.9z"/>
	<path d="M156.3,287.2c0.2-0.7,0.4-1.3,0.8-1.8c0.3-0.5,0.7-0.9,1.1-1.1c0.4-0.3,0.9-0.4,1.4-0.4c1,0,1.8,0.3,2.3,0.8
		c0.5,0.5,0.8,1.3,0.9,2.4h3.8c-0.1-1-0.3-1.9-0.7-2.7s-0.8-1.5-1.4-2c-0.6-0.5-1.3-1-2.2-1.3c-0.9-0.3-1.9-0.4-3-0.4
		c-1.1,0-2,0.2-2.9,0.6c-0.9,0.4-1.7,1-2.4,1.8s-1.2,1.7-1.6,2.9c-0.4,1.1-0.6,2.4-0.6,3.8v2.8c0,1.4,0.2,2.7,0.5,3.8
		c0.4,1.1,0.9,2.1,1.5,2.9c0.7,0.8,1.5,1.4,2.4,1.8s2,0.6,3.1,0.6c0.9,0,1.7-0.1,2.4-0.2c0.7-0.2,1.4-0.4,2-0.6
		c0.6-0.3,1.1-0.5,1.6-0.9c0.4-0.3,0.8-0.6,1-0.9l0-8.1h-7.3v2.9h3.4l0,3.7c-0.1,0.1-0.3,0.2-0.5,0.3c-0.2,0.1-0.4,0.2-0.7,0.3
		c-0.3,0.1-0.5,0.1-0.8,0.2c-0.3,0-0.6,0.1-0.9,0.1c-1.3,0-2.2-0.5-2.9-1.5c-0.6-1-0.9-2.5-1-4.4v-2.8
		C156,288.8,156.1,288,156.3,287.2z"/>
	<path d="M172.2,237.5l-51.3,51.3l-51.4-51.3H65l53.6,53.6L65,344.6l38,0c0-9.9,8-17.9,17.9-17.9c9.9,0,17.9,8,17.9,17.9h38
		l-53.6-53.6l53.6-53.6L172.2,237.5z"/>
	<path d="M242.6,295.6c2.6-0.7,4.8-1.8,6.6-3.3c1.8-1.5,3.2-3.3,4.2-5.4s1.5-4.7,1.5-7.5c0-1.5-0.2-2.9-0.6-4.3
		c-0.4-1.4-1-2.7-1.8-3.9c-0.8-1.2-1.9-2.2-3.1-3.1c-1.2-0.9-2.7-1.5-4.4-2c2.8-1.1,5-2.8,6.4-5c1.4-2.2,2.2-4.7,2.2-7.4
		c0-2.8-0.5-5.2-1.5-7.2s-2.5-3.7-4.3-5c-1.9-1.3-4.1-2.3-6.8-3c-2.6-0.7-5.6-1-8.8-1h-19.9v59.2h21.6
		C237,296.7,240,296.3,242.6,295.6z M223.7,246.8h8.5c3.2,0,5.7,0.6,7.4,1.8c1.7,1.2,2.6,3.2,2.6,6c0,2.5-0.9,4.4-2.6,5.7
		c-1.7,1.3-4.1,2-7.3,2h-8.5V246.8z M223.7,270.6h10.6c3.1,0,5.4,0.8,6.9,2.3c1.5,1.5,2.2,3.6,2.2,6.3c0,2.4-0.8,4.4-2.5,5.9
		c-1.6,1.5-4,2.3-7.1,2.3h-10.2V270.6z"/>
	<polygon points="311,287.4 282.6,287.4 282.6,270.7 306.9,270.7 306.9,261.7 282.6,261.7 282.6,246.8 310.9,246.8 310.9,237.5 
		271.1,237.5 271.1,296.7 311,296.7 	"/>
	<path d="M371.3,296.1l-12.7-24.4c1.6-0.7,3.1-1.6,4.4-2.6c1.3-1,2.4-2.2,3.4-3.5c0.9-1.3,1.7-2.9,2.2-4.6c0.5-1.7,0.8-3.6,0.8-5.7
		c0-2.9-0.5-5.5-1.5-7.7c-1-2.2-2.5-4.1-4.3-5.6c-1.9-1.5-4.2-2.6-6.8-3.4c-2.7-0.8-5.6-1.2-8.9-1.2h-19.8v59.2h11.4v-22.1h8.7
		l11.1,22.1h12.2V296.1z M355.2,262.8c-1.7,1.6-4.2,2.5-7.5,2.5h-8.5v-18.5h8.4c3.3,0,5.9,0.8,7.6,2.5c1.7,1.6,2.6,3.9,2.6,6.9
		C357.8,259,356.9,261.2,355.2,262.8z"/>
	<polygon points="425.8,287.4 398.1,287.4 398.1,237.5 386.6,237.5 386.6,296.7 425.8,296.7 	"/>
	<polygon points="443.5,246.7 454.8,246.7 454.8,287.5 443.5,287.5 443.5,296.7 477.8,296.7 477.8,287.5 466.2,287.5 466.2,246.7 
		477.8,246.7 477.8,237.5 443.5,237.5 	"/>
	<polygon points="523.5,237.5 523.5,275.5 507.2,237.5 495.7,237.5 495.7,296.7 507.2,296.7 507.2,258.5 523.6,296.7 535,296.7 
		535,237.5 	"/>
	<path d="M232.7,331.6c-0.4-0.6-1-1.1-1.6-1.6c-0.6-0.4-1.4-0.8-2.3-1c1.4-0.6,2.5-1.4,3.3-2.5c0.7-1.1,1.1-2.4,1.1-3.8
		c0-1.4-0.3-2.6-0.8-3.7c-0.5-1-1.3-1.9-2.2-2.6c-1-0.7-2.1-1.2-3.5-1.5c-1.3-0.3-2.8-0.5-4.5-0.5h-10.1v30.2h11
		c1.7,0,3.2-0.2,4.5-0.6c1.3-0.4,2.5-0.9,3.4-1.7c0.9-0.7,1.6-1.7,2.1-2.8c0.5-1.1,0.7-2.4,0.7-3.8c0-0.8-0.1-1.5-0.3-2.2
		C233.5,332.8,233.1,332.2,232.7,331.6z M218.1,319.2h4.3c1.6,0,2.9,0.3,3.8,0.9c0.9,0.6,1.3,1.6,1.3,3c0,1.3-0.5,2.3-1.3,2.9
		c-0.9,0.7-2.1,1-3.7,1h-4.3V319.2z M226.9,338.7c-0.8,0.8-2,1.2-3.6,1.2h-5.2v-8.6h5.4c1.6,0,2.8,0.4,3.5,1.2
		c0.8,0.8,1.1,1.9,1.1,3.2C228.1,336.9,227.7,338,226.9,338.7z"/>
	<path d="M260.4,330.5c0.7-0.5,1.2-1.1,1.7-1.8c0.5-0.7,0.8-1.5,1.1-2.3c0.3-0.9,0.4-1.8,0.4-2.9c0-1.5-0.3-2.8-0.8-3.9
		c-0.5-1.1-1.3-2.1-2.2-2.8c-1-0.8-2.1-1.3-3.5-1.7c-1.4-0.4-2.9-0.6-4.5-0.6h-10.1v30.2h5.8v-11.3h4.4l5.7,11.3h6.2v-0.3l-6.5-12.5
		C259,331.5,259.8,331.1,260.4,330.5z M256.5,327.3c-0.9,0.8-2.2,1.3-3.8,1.3h-4.3v-9.5h4.3c1.7,0,3,0.4,3.9,1.3
		c0.9,0.8,1.3,2,1.3,3.5C257.8,325.4,257.4,326.5,256.5,327.3z"/>
	<path d="M281.6,314.4l-9.9,30.2h6.1l1.8-6.3h9.1l1.8,6.3h6.1l-9.7-30.2H281.6z M281.1,333.3l3.2-11.1l3.1,11.1H281.1z"/>
	<polygon points="318.5,333.8 310.2,314.4 304.4,314.4 304.4,344.6 310.2,344.6 310.2,325.1 318.6,344.6 324.4,344.6 324.4,314.4 
		318.6,314.4 	"/>
	<path d="M351.8,318.3c-1.2-1.2-2.5-2.2-4.2-2.9c-1.6-0.7-3.4-1-5.4-1h-7.8v30.2h8.1c1.9,0,3.7-0.3,5.3-1c1.6-0.7,2.9-1.6,4.1-2.9
		c1.1-1.2,2-2.7,2.6-4.4c0.6-1.7,0.9-3.6,0.9-5.6v-2.5c0-2-0.3-3.9-0.9-5.6C353.9,321,353,319.5,351.8,318.3z M349.5,330.8
		c0,1.4-0.2,2.7-0.5,3.8c-0.3,1.1-0.8,2.1-1.4,2.9c-0.6,0.8-1.3,1.4-2.2,1.8c-0.9,0.4-1.8,0.6-2.9,0.6h-2.2v-20.8h1.9
		c1.2,0,2.2,0.2,3.1,0.7c0.9,0.4,1.7,1.1,2.3,1.9c0.6,0.8,1.1,1.8,1.4,2.9c0.3,1.1,0.5,2.3,0.5,3.7V330.8z"/>
	<polygon points="370.4,331.4 382.8,331.4 382.8,326.8 370.4,326.8 370.4,319.2 384.8,319.2 384.8,314.4 364.5,314.4 364.5,344.6 
		384.9,344.6 384.9,339.9 370.4,339.9 	"/>
	<polygon points="408,333.8 399.7,314.4 393.8,314.4 393.8,344.6 399.7,344.6 399.7,325.1 408.1,344.6 413.9,344.6 413.9,314.4 
		408,314.4 	"/>
	<path d="M444.4,331.6c-0.4-0.6-1-1.1-1.6-1.6c-0.6-0.4-1.4-0.8-2.3-1c1.4-0.6,2.5-1.4,3.3-2.5c0.7-1.1,1.1-2.4,1.1-3.8
		c0-1.4-0.3-2.6-0.8-3.7c-0.5-1-1.3-1.9-2.2-2.6c-1-0.7-2.1-1.2-3.5-1.5c-1.3-0.3-2.8-0.5-4.5-0.5h-10.1v30.2h11
		c1.7,0,3.2-0.2,4.5-0.6c1.3-0.4,2.5-0.9,3.4-1.7c0.9-0.7,1.6-1.7,2.1-2.8c0.5-1.1,0.7-2.4,0.7-3.8c0-0.8-0.1-1.5-0.3-2.2
		C445.2,332.8,444.9,332.2,444.4,331.6z M429.8,319.2h4.3c1.6,0,2.9,0.3,3.8,0.9c0.9,0.6,1.3,1.6,1.3,3c0,1.3-0.5,2.3-1.3,2.9
		c-0.9,0.7-2.1,1-3.7,1h-4.3V319.2z M438.6,338.7c-0.8,0.8-2,1.2-3.6,1.2h-5.2v-8.6h5.4c1.6,0,2.8,0.4,3.5,1.2
		c0.8,0.8,1.1,1.9,1.1,3.2C439.9,336.9,439.4,338,438.6,338.7z"/>
	<path d="M468.5,314.4l0,20c0,1.9-0.4,3.4-1.1,4.4c-0.8,1-1.8,1.5-3.3,1.5c-1.3,0-2.4-0.5-3.1-1.5c-0.7-1-1.1-2.5-1.1-4.4l0-20h-5.8
		l0,20c0,1.7,0.2,3.2,0.7,4.5c0.5,1.3,1.2,2.4,2,3.3c0.9,0.9,1.9,1.6,3.1,2.1c1.2,0.5,2.6,0.7,4.1,0.7c1.6,0,3.1-0.2,4.3-0.7
		c1.3-0.5,2.3-1.2,3.2-2.1c0.9-0.9,1.5-2,2-3.3c0.5-1.3,0.7-2.8,0.7-4.5l0-20H468.5z"/>
	<path d="M502,330.5c0.7-0.5,1.2-1.1,1.7-1.8c0.5-0.7,0.8-1.5,1.1-2.3c0.3-0.9,0.4-1.8,0.4-2.9c0-1.5-0.3-2.8-0.8-3.9
		c-0.5-1.1-1.3-2.1-2.2-2.8c-1-0.8-2.1-1.3-3.5-1.7c-1.4-0.4-2.9-0.6-4.5-0.6h-10.1v30.2h5.8v-11.3h4.4l5.7,11.3h6.2v-0.3l-6.5-12.5
		C500.6,331.5,501.4,331.1,502,330.5z M498.1,327.3c-0.9,0.8-2.2,1.3-3.8,1.3H490v-9.5h4.3c1.7,0,3,0.4,3.9,1.3
		c0.9,0.8,1.3,2,1.3,3.5C499.4,325.4,499,326.5,498.1,327.3z"/>
	<path d="M524.2,329.2v4.4h5l0,5.5c-0.2,0.2-0.4,0.3-0.7,0.5c-0.3,0.2-0.6,0.3-1,0.4c-0.4,0.1-0.8,0.2-1.2,0.3
		c-0.4,0.1-0.9,0.1-1.3,0.1c-1.9,0-3.3-0.8-4.2-2.3c-0.9-1.5-1.4-3.7-1.4-6.5v-4.1c0-1.4,0.1-2.7,0.4-3.8c0.3-1.1,0.6-2,1.1-2.7
		c0.5-0.7,1-1.3,1.7-1.7c0.6-0.4,1.3-0.6,2.1-0.6c1.5,0,2.7,0.4,3.4,1.2c0.7,0.8,1.2,1.9,1.4,3.5h5.7c-0.2-1.5-0.5-2.8-1-3.9
		c-0.5-1.2-1.2-2.1-2-3c-0.9-0.8-1.9-1.4-3.2-1.9c-1.3-0.4-2.7-0.6-4.4-0.6c-1.6,0-3,0.3-4.3,0.9c-1.3,0.6-2.5,1.5-3.5,2.7
		c-1,1.2-1.8,2.6-2.3,4.2c-0.6,1.7-0.8,3.6-0.8,5.7v4.1c0,2.1,0.3,4,0.8,5.7c0.5,1.7,1.3,3.1,2.3,4.2c1,1.1,2.2,2,3.5,2.6
		c1.4,0.6,2.9,0.9,4.6,0.9c1.3,0,2.5-0.1,3.6-0.4c1.1-0.2,2.1-0.5,3-0.9c0.9-0.4,1.7-0.8,2.3-1.3c0.6-0.5,1.2-0.9,1.5-1.4l0-11.9
		H524.2z"/>
</g>
</svg>
