<?xml version="1.0" encoding="utf-8"?>
<!-- Generator: Adobe Illustrator 21.1.0, SVG Export Plug-In . SVG Version: 6.00 Build 0)  -->
<svg version="1.1" id="Layer_1" xmlns="http://www.w3.org/2000/svg" xmlns:xlink="http://www.w3.org/1999/xlink" x="0px" y="0px"
	 viewBox="0 0 600 600" style="enable-background:new 0 0 600 600;" xml:space="preserve">
<style type="text/css">
	.st0{fill:#FF0000;}
</style>
<g>
	<path d="M200.7,245.2c1.3,1.2,3,2,4.8,2.6c1.9,0.6,4,0.9,6.3,0.9c2.2,0,4.2-0.4,6.1-1.1c1.9-0.7,3.5-1.7,4.9-3
		c1.4-1.3,2.5-2.8,3.3-4.6c0.8-1.8,1.2-3.8,1.2-5.9l0-31.7h-8.8V234c0,1.1-0.2,2.1-0.5,3c-0.3,0.9-0.8,1.7-1.4,2.4
		c-0.6,0.7-1.3,1.2-2.1,1.6c-0.8,0.4-1.8,0.6-2.8,0.6c-2.2,0-3.9-0.5-5-1.6c-1.1-1.1-1.6-2.9-1.6-5.3h-8.9c0,2.4,0.4,4.4,1.2,6.2
		C198.3,242.5,199.3,244,200.7,245.2z"/>
	<path d="M287.5,159.7c1.3,1.4,2.9,2.4,4.8,3.1s3.9,1.1,6.2,1.1c2.4,0,4.6-0.4,6.5-1.1c1.9-0.7,3.5-1.8,4.9-3.1c1.3-1.4,2.3-3,3-5
		c0.7-2,1.1-4.3,1.1-6.8l0-30.3h-8.8l0,30.3c0,3-0.6,5.2-1.7,6.7c-1.1,1.5-2.8,2.3-4.9,2.3c-2,0-3.6-0.8-4.6-2.3
		c-1.1-1.5-1.6-3.7-1.6-6.7l0-30.3h-8.8l0,30.3c0,2.6,0.4,4.8,1.1,6.8C285.2,156.6,286.2,158.3,287.5,159.7z"/>
	<path d="M378.2,216.3c0.4-1.6,1-3,1.7-4.1c0.7-1.1,1.5-2,2.5-2.5c1-0.6,2-0.9,3.1-0.9c2.3,0,4.1,0.6,5.2,1.8
		c1.1,1.2,1.8,2.9,2.1,5.3h8.6c-0.2-2.2-0.7-4.2-1.5-5.9c-0.7-1.8-1.8-3.2-3.1-4.5s-2.9-2.2-4.8-2.8c-1.9-0.6-4.2-1-6.7-1
		c-2.4,0-4.6,0.5-6.6,1.4c-2,0.9-3.8,2.3-5.3,4c-1.5,1.8-2.7,3.9-3.5,6.4c-0.8,2.5-1.3,5.4-1.3,8.6v6.2c0,3.2,0.4,6.1,1.2,8.6
		c0.8,2.5,2,4.7,3.4,6.4c1.5,1.7,3.3,3.1,5.4,4c2.1,0.9,4.4,1.4,7,1.4c1.9,0,3.7-0.2,5.4-0.5c1.7-0.4,3.2-0.8,4.5-1.4
		c1.3-0.6,2.5-1.2,3.5-1.9c1-0.7,1.8-1.4,2.3-2.1l0-18h-16.4v6.6h7.6l0,8.3c-0.2,0.3-0.6,0.5-1,0.8c-0.4,0.2-1,0.5-1.6,0.6
		s-1.2,0.3-1.9,0.4c-0.7,0.1-1.3,0.2-2,0.2c-2.9,0-5-1.2-6.4-3.4c-1.4-2.3-2.1-5.5-2.1-9.8V222C377.6,219.9,377.8,218,378.2,216.3z"
		/>
	<path d="M197.4,456.5c2-0.6,3.7-1.4,5.1-2.5c1.4-1.1,2.5-2.5,3.2-4.2c0.8-1.7,1.1-3.6,1.1-5.8c0-1.2-0.2-2.3-0.5-3.4
		c-0.3-1.1-0.8-2.1-1.4-3c-0.6-0.9-1.4-1.7-2.4-2.4c-1-0.7-2.1-1.2-3.4-1.5c2.2-0.9,3.8-2.2,5-3.9c1.1-1.7,1.7-3.6,1.7-5.8
		c0-2.1-0.4-4-1.2-5.6c-0.8-1.6-1.9-2.9-3.4-3.9c-1.4-1-3.2-1.8-5.2-2.3c-2-0.5-4.3-0.8-6.8-0.8h-15.4v45.8h16.7
		C193.1,457.4,195.4,457.1,197.4,456.5z M182.8,418.8h6.5c2.5,0,4.4,0.5,5.7,1.4c1.3,0.9,2,2.5,2,4.6c0,2-0.7,3.4-2,4.4
		c-1.3,1-3.2,1.5-5.7,1.5h-6.6V418.8z M182.8,437.2h8.2c2.4,0,4.2,0.6,5.4,1.8c1.2,1.2,1.7,2.8,1.7,4.9c0,1.9-0.6,3.4-1.9,4.6
		c-1.3,1.2-3.1,1.8-5.5,1.8h-7.9V437.2z"/>
	<polygon points="250.4,450.2 228.4,450.2 228.4,437.3 247.2,437.3 247.2,430.3 228.4,430.3 228.4,418.8 250.3,418.8 250.3,411.6 
		219.5,411.6 219.5,457.4 250.4,457.4 	"/>
	<path d="M297.1,457l-9.9-18.9c1.3-0.6,2.4-1.2,3.4-2c1-0.8,1.9-1.7,2.6-2.7c0.7-1,1.3-2.2,1.7-3.5c0.4-1.3,0.6-2.8,0.6-4.4
		c0-2.3-0.4-4.3-1.2-6c-0.8-1.7-1.9-3.2-3.4-4.3c-1.5-1.2-3.2-2-5.3-2.6c-2.1-0.6-4.4-0.9-6.9-0.9h-15.4v45.8h8.8v-17.1h6.7
		l8.6,17.1h9.5V457z M284.6,431.2c-1.4,1.3-3.3,1.9-5.8,1.9h-6.5v-14.4h6.5c2.6,0,4.5,0.6,5.9,1.9c1.3,1.3,2,3,2,5.3
		C286.6,428.2,286,429.9,284.6,431.2z"/>
	<polygon points="339.3,450.2 317.9,450.2 317.9,411.6 309,411.6 309,457.4 339.3,457.4 	"/>
	<polygon points="353.1,418.7 361.8,418.7 361.8,450.3 353.1,450.3 353.1,457.4 379.6,457.4 379.6,450.3 370.6,450.3 370.6,418.7 
		379.6,418.7 379.6,411.6 353.1,411.6 	"/>
	<polygon points="415,411.6 415,441 402.3,411.6 393.4,411.6 393.4,457.4 402.3,457.4 402.3,427.8 415.1,457.4 423.9,457.4 
		423.9,411.6 	"/>
	<path d="M189.8,484.4c-0.3-0.5-0.7-0.9-1.2-1.2c-0.5-0.3-1.1-0.6-1.7-0.8c1.1-0.4,2-1.1,2.5-2c0.6-0.9,0.9-1.8,0.9-2.9
		c0-1.1-0.2-2-0.6-2.8c-0.4-0.8-1-1.5-1.7-2c-0.7-0.5-1.6-0.9-2.7-1.2c-1-0.3-2.2-0.4-3.5-0.4h-7.8v23.4h8.5c1.3,0,2.4-0.1,3.5-0.4
		c1-0.3,1.9-0.7,2.6-1.3c0.7-0.6,1.3-1.3,1.7-2.2c0.4-0.9,0.6-1.8,0.6-3c0-0.6-0.1-1.2-0.2-1.7C190.3,485.4,190.1,484.9,189.8,484.4
		z M178.4,474.8h3.3c1.3,0,2.2,0.3,2.9,0.7c0.7,0.5,1,1.3,1,2.4c0,1-0.4,1.7-1,2.3c-0.7,0.5-1.6,0.8-2.9,0.8h-3.4V474.8z M185.2,490
		c-0.6,0.6-1.6,0.9-2.8,0.9h-4v-6.7h4.2c1.2,0,2.1,0.3,2.7,0.9c0.6,0.6,0.9,1.4,0.9,2.5C186.2,488.6,185.9,489.4,185.2,490z"/>
	<path d="M211.2,483.6c0.5-0.4,1-0.9,1.3-1.4c0.4-0.5,0.7-1.1,0.9-1.8c0.2-0.7,0.3-1.4,0.3-2.3c0-1.2-0.2-2.2-0.6-3
		c-0.4-0.9-1-1.6-1.7-2.2c-0.7-0.6-1.6-1-2.7-1.3c-1-0.3-2.2-0.5-3.5-0.5h-7.8v23.4h4.5v-8.7h3.4l4.4,8.7h4.8v-0.2l-5-9.6
		C210.1,484.4,210.7,484,211.2,483.6z M208.2,481.1c-0.7,0.6-1.7,1-2.9,1h-3.3v-7.3h3.3c1.3,0,2.3,0.3,3,1c0.7,0.6,1,1.6,1,2.7
		C209.2,479.6,208.9,480.5,208.2,481.1z"/>
	<path d="M227.7,471.1l-7.7,23.4h4.8l1.4-4.9h7l1.4,4.9h4.8l-7.5-23.4H227.7z M227.2,485.8l2.5-8.6l2.4,8.6H227.2z"/>
	<polygon points="256.2,486.1 249.8,471.1 245.2,471.1 245.2,494.5 249.8,494.5 249.8,479.4 256.3,494.5 260.8,494.5 260.8,471.1 
		256.3,471.1 	"/>
	<path d="M282,474.1c-0.9-0.9-2-1.7-3.2-2.2c-1.3-0.5-2.7-0.8-4.2-0.8h-6.1v23.4h6.3c1.5,0,2.8-0.3,4.1-0.8c1.2-0.5,2.3-1.3,3.2-2.2
		c0.9-0.9,1.6-2.1,2-3.4c0.5-1.3,0.7-2.8,0.7-4.3v-1.9c0-1.6-0.2-3-0.7-4.3C283.6,476.2,282.9,475.1,282,474.1z M280.2,483.8
		c0,1.1-0.1,2.1-0.4,3c-0.2,0.9-0.6,1.6-1.1,2.2c-0.5,0.6-1,1.1-1.7,1.4c-0.7,0.3-1.4,0.5-2.3,0.5h-1.7v-16.1h1.5
		c0.9,0,1.7,0.2,2.4,0.5c0.7,0.3,1.3,0.8,1.8,1.4c0.5,0.6,0.8,1.4,1.1,2.2c0.2,0.9,0.4,1.8,0.4,2.9V483.8z"/>
	<polygon points="296.4,484.3 306,484.3 306,480.7 296.4,480.7 296.4,474.8 307.6,474.8 307.6,471.1 291.9,471.1 291.9,494.5 
		307.6,494.5 307.6,490.9 296.4,490.9 	"/>
	<polygon points="325.5,486.1 319.1,471.1 314.6,471.1 314.6,494.5 319.1,494.5 319.1,479.4 325.6,494.5 330.1,494.5 330.1,471.1 
		325.6,471.1 	"/>
	<path d="M353.8,484.4c-0.3-0.5-0.7-0.9-1.2-1.2c-0.5-0.3-1.1-0.6-1.8-0.8c1.1-0.4,2-1.1,2.5-2c0.6-0.9,0.9-1.8,0.9-2.9
		c0-1.1-0.2-2-0.6-2.8c-0.4-0.8-1-1.5-1.7-2c-0.7-0.5-1.6-0.9-2.7-1.2c-1-0.3-2.2-0.4-3.5-0.4h-7.8v23.4h8.5c1.3,0,2.4-0.1,3.5-0.4
		c1-0.3,1.9-0.7,2.6-1.3c0.7-0.6,1.3-1.3,1.7-2.2c0.4-0.9,0.6-1.8,0.6-3c0-0.6-0.1-1.2-0.2-1.7C354.3,485.4,354.1,484.9,353.8,484.4
		z M342.4,474.8h3.3c1.3,0,2.2,0.3,2.9,0.7c0.7,0.5,1,1.3,1,2.4c0,1-0.4,1.7-1,2.3c-0.7,0.5-1.6,0.8-2.9,0.8h-3.4V474.8z M349.2,490
		c-0.6,0.6-1.6,0.9-2.8,0.9h-4v-6.7h4.2c1.2,0,2.1,0.3,2.7,0.9c0.6,0.6,0.9,1.4,0.9,2.5C350.2,488.6,349.9,489.4,349.2,490z"/>
	<path d="M372.4,471.1l0,15.5c0,1.5-0.3,2.6-0.9,3.4c-0.6,0.8-1.4,1.2-2.5,1.2c-1,0-1.8-0.4-2.4-1.2c-0.5-0.8-0.8-1.9-0.8-3.4
		l0-15.5h-4.5l0,15.5c0,1.3,0.2,2.5,0.6,3.5c0.4,1,0.9,1.9,1.6,2.6c0.7,0.7,1.5,1.2,2.4,1.6c0.9,0.4,2,0.5,3.2,0.5
		c1.3,0,2.4-0.2,3.3-0.5c1-0.4,1.8-0.9,2.5-1.6c0.7-0.7,1.2-1.6,1.6-2.6c0.4-1,0.5-2.2,0.5-3.5l0-15.5H372.4z"/>
	<path d="M398.4,483.6c0.5-0.4,1-0.9,1.3-1.4c0.4-0.5,0.7-1.1,0.9-1.8c0.2-0.7,0.3-1.4,0.3-2.3c0-1.2-0.2-2.2-0.6-3
		c-0.4-0.9-1-1.6-1.7-2.2c-0.7-0.6-1.6-1-2.7-1.3c-1-0.3-2.2-0.5-3.5-0.5h-7.8v23.4h4.5v-8.7h3.4l4.4,8.7h4.8v-0.2l-5-9.6
		C397.3,484.4,397.8,484,398.4,483.6z M395.3,481.1c-0.7,0.6-1.7,1-2.9,1H389v-7.3h3.3c1.3,0,2.3,0.3,3,1c0.7,0.6,1,1.6,1,2.7
		C396.3,479.6,396,480.5,395.3,481.1z"/>
	<path d="M415.5,482.6v3.4h3.9l0,4.2c-0.1,0.1-0.3,0.3-0.5,0.4c-0.2,0.1-0.5,0.2-0.8,0.3c-0.3,0.1-0.6,0.2-1,0.2
		c-0.3,0.1-0.7,0.1-1,0.1c-1.5,0-2.6-0.6-3.3-1.8c-0.7-1.2-1.1-2.8-1.1-5v-3.2c0-1.1,0.1-2.1,0.3-2.9c0.2-0.8,0.5-1.5,0.9-2.1
		c0.4-0.6,0.8-1,1.3-1.3c0.5-0.3,1-0.4,1.6-0.4c1.2,0,2.1,0.3,2.7,0.9c0.6,0.6,0.9,1.5,1.1,2.7h4.4c-0.1-1.1-0.4-2.1-0.7-3
		c-0.4-0.9-0.9-1.7-1.6-2.3c-0.7-0.6-1.5-1.1-2.5-1.4c-1-0.3-2.1-0.5-3.4-0.5c-1.2,0-2.3,0.2-3.4,0.7c-1,0.5-1.9,1.2-2.7,2.1
		c-0.8,0.9-1.4,2-1.8,3.3c-0.4,1.3-0.6,2.8-0.6,4.4v3.2c0,1.6,0.2,3.1,0.6,4.4c0.4,1.3,1,2.4,1.8,3.3c0.8,0.9,1.7,1.6,2.7,2
		c1.1,0.5,2.3,0.7,3.6,0.7c1,0,1.9-0.1,2.8-0.3c0.9-0.2,1.6-0.4,2.3-0.7c0.7-0.3,1.3-0.6,1.8-1c0.5-0.4,0.9-0.7,1.2-1.1l0-9.2H415.5
		z"/>
	<path d="M258.9,344.8c0-22.1,17.9-40,40-40c22.1,0,40,17.9,40,40h85L304,224.9l119.9-119.9l-10.1,0L298.9,219.8L184,105.1h-10.1
		L293.7,225L173.9,344.8L258.9,344.8z"/>
</g>
<circle class="st0" cx="298.9" cy="344.8" r="40"/>
</svg>
