<?xml version="1.0" encoding="utf-8"?>
<!-- Generator: Adobe Illustrator 21.1.0, SVG Export Plug-In . SVG Version: 6.00 Build 0)  -->
<svg version="1.1" id="Layer_1" xmlns="http://www.w3.org/2000/svg" xmlns:xlink="http://www.w3.org/1999/xlink" x="0px" y="0px"
	 viewBox="0 0 600 600" style="enable-background:new 0 0 600 600;" xml:space="preserve">
<style type="text/css">
	.st0{fill:#FF0000;}
</style>
<circle class="st0" cx="299.7" cy="347.4" r="39.9"/>
<g>
	<path d="M205.2,432.2c1.1-1.7,1.7-3.6,1.7-5.7c0-2.1-0.4-4-1.2-5.6c-0.8-1.6-1.9-2.9-3.3-3.9s-3.2-1.8-5.2-2.3
		c-2-0.5-4.3-0.8-6.8-0.8H175v45.7h16.7c2.5,0,4.8-0.3,6.8-0.8c2-0.6,3.7-1.4,5.1-2.5c1.4-1.1,2.5-2.5,3.2-4.2
		c0.8-1.7,1.1-3.6,1.1-5.8c0-1.2-0.2-2.3-0.5-3.3c-0.3-1.1-0.8-2.1-1.4-3c-0.6-0.9-1.4-1.7-2.4-2.4c-1-0.7-2.1-1.2-3.4-1.5
		C202.4,435.2,204.1,433.9,205.2,432.2z M183.9,421.2h6.5c2.5,0,4.4,0.5,5.7,1.4c1.3,0.9,2,2.5,2,4.6c0,1.9-0.7,3.4-2,4.4
		c-1.3,1-3.2,1.5-5.7,1.5h-6.6V421.2z M197.2,450.8c-1.3,1.2-3.1,1.8-5.5,1.8h-7.9v-13h8.2c2.4,0,4.2,0.6,5.3,1.8
		c1.2,1.2,1.7,2.8,1.7,4.9C199.1,448.1,198.5,449.6,197.2,450.8z"/>
	<polygon points="251.3,452.6 229.4,452.6 229.4,439.7 248.2,439.7 248.2,432.7 229.4,432.7 229.4,421.2 251.2,421.2 251.2,414 
		220.5,414 220.5,459.7 251.3,459.7 	"/>
	<path d="M298,459.3l-9.8-18.9c1.3-0.6,2.4-1.2,3.4-2c1-0.8,1.9-1.7,2.6-2.7c0.7-1,1.3-2.2,1.7-3.5c0.4-1.3,0.6-2.8,0.6-4.4
		c0-2.3-0.4-4.3-1.2-6c-0.8-1.7-1.9-3.2-3.4-4.3c-1.5-1.2-3.2-2-5.3-2.6c-2.1-0.6-4.3-0.9-6.9-0.9h-15.3v45.7h8.8v-17.1h6.7
		l8.6,17.1h9.5V459.3z M285.5,433.6c-1.4,1.3-3.3,1.9-5.8,1.9h-6.5v-14.3h6.5c2.6,0,4.5,0.6,5.8,1.9c1.3,1.3,2,3,2,5.3
		C287.5,430.6,286.9,432.3,285.5,433.6z"/>
	<polygon points="340.1,452.6 318.7,452.6 318.7,414 309.8,414 309.8,459.7 340.1,459.7 	"/>
	<polygon points="353.8,421.1 362.5,421.1 362.5,452.6 353.8,452.6 353.8,459.7 380.2,459.7 380.2,452.6 371.3,452.6 371.3,421.1 
		380.2,421.1 380.2,414 353.8,414 	"/>
	<polygon points="415.6,443.4 403,414 394.1,414 394.1,459.7 403,459.7 403,430.2 415.7,459.7 424.5,459.7 424.5,414 415.6,414 	"/>
	<path d="M190.9,486.7c-0.3-0.5-0.7-0.9-1.2-1.2c-0.5-0.3-1.1-0.6-1.7-0.8c1.1-0.4,2-1.1,2.5-2c0.6-0.9,0.9-1.8,0.9-2.9
		c0-1.1-0.2-2-0.6-2.8c-0.4-0.8-1-1.5-1.7-2c-0.7-0.5-1.6-0.9-2.7-1.2c-1-0.3-2.2-0.4-3.5-0.4H175v23.3h8.5c1.3,0,2.4-0.1,3.5-0.4
		c1-0.3,1.9-0.7,2.6-1.3c0.7-0.6,1.3-1.3,1.6-2.1c0.4-0.9,0.6-1.8,0.6-3c0-0.6-0.1-1.2-0.2-1.7C191.4,487.7,191.2,487.2,190.9,486.7
		z M179.5,477.1h3.3c1.3,0,2.2,0.3,2.9,0.7c0.7,0.5,1,1.3,1,2.3c0,1-0.4,1.7-1,2.3s-1.6,0.8-2.9,0.8h-3.3V477.1z M186.3,492.2
		c-0.6,0.6-1.6,0.9-2.8,0.9h-4v-6.6h4.2c1.2,0,2.1,0.3,2.7,0.9c0.6,0.6,0.9,1.4,0.9,2.5C187.3,490.8,187,491.6,186.3,492.2z"/>
	<path d="M212.3,485.9c0.5-0.4,1-0.9,1.3-1.4c0.4-0.5,0.7-1.1,0.8-1.8c0.2-0.7,0.3-1.4,0.3-2.3c0-1.2-0.2-2.2-0.6-3
		c-0.4-0.9-1-1.6-1.7-2.2c-0.7-0.6-1.6-1-2.7-1.3c-1-0.3-2.2-0.5-3.5-0.5h-7.8v23.3h4.5V488h3.4l4.4,8.7h4.8v-0.2l-5-9.6
		C211.2,486.6,211.8,486.3,212.3,485.9z M209.2,483.4c-0.7,0.6-1.7,1-2.9,1h-3.3v-7.3h3.3c1.3,0,2.3,0.3,3,1c0.7,0.6,1,1.6,1,2.7
		C210.2,481.9,209.9,482.8,209.2,483.4z"/>
	<path d="M228.7,473.4l-7.6,23.3h4.7l1.4-4.9h7l1.4,4.9h4.7l-7.5-23.3H228.7z M228.2,488.1l2.5-8.6l2.4,8.6H228.2z"/>
	<polygon points="257.2,488.4 250.8,473.4 246.2,473.4 246.2,496.8 250.8,496.8 250.8,481.7 257.2,496.8 261.7,496.8 261.7,473.4 
		257.2,473.4 	"/>
	<path d="M282.9,476.4c-0.9-0.9-2-1.7-3.2-2.2c-1.3-0.5-2.7-0.8-4.2-0.8h-6v23.3h6.3c1.5,0,2.8-0.3,4.1-0.8c1.2-0.5,2.3-1.3,3.2-2.2
		c0.9-0.9,1.6-2.1,2-3.4c0.5-1.3,0.7-2.7,0.7-4.3v-1.9c0-1.6-0.2-3-0.7-4.3C284.5,478.5,283.8,477.4,282.9,476.4z M281.1,486.1
		c0,1.1-0.1,2.1-0.4,3c-0.2,0.9-0.6,1.6-1.1,2.2c-0.5,0.6-1,1.1-1.7,1.4c-0.7,0.3-1.4,0.5-2.3,0.5H274v-16.1h1.5
		c0.9,0,1.7,0.2,2.4,0.5c0.7,0.3,1.3,0.8,1.8,1.4c0.5,0.6,0.8,1.4,1.1,2.2c0.2,0.9,0.4,1.8,0.4,2.9V486.1z"/>
	<polygon points="297.3,486.5 306.8,486.5 306.8,483 297.3,483 297.3,477.1 308.4,477.1 308.4,473.4 292.7,473.4 292.7,496.8 
		308.5,496.8 308.5,493.1 297.3,493.1 	"/>
	<polygon points="326.4,488.4 319.9,473.4 315.4,473.4 315.4,496.8 319.9,496.8 319.9,481.7 326.4,496.8 330.9,496.8 330.9,473.4 
		326.4,473.4 	"/>
	<path d="M354.5,486.7c-0.3-0.5-0.7-0.9-1.2-1.2c-0.5-0.3-1.1-0.6-1.7-0.8c1.1-0.4,2-1.1,2.5-2c0.6-0.9,0.9-1.8,0.9-2.9
		c0-1.1-0.2-2-0.6-2.8c-0.4-0.8-1-1.5-1.7-2c-0.7-0.5-1.6-0.9-2.7-1.2c-1-0.3-2.2-0.4-3.5-0.4h-7.8v23.3h8.5c1.3,0,2.4-0.1,3.5-0.4
		c1-0.3,1.9-0.7,2.6-1.3c0.7-0.6,1.3-1.3,1.7-2.1c0.4-0.9,0.6-1.8,0.6-3c0-0.6-0.1-1.2-0.2-1.7C355.1,487.7,354.8,487.2,354.5,486.7
		z M343.2,477.1h3.3c1.3,0,2.2,0.3,2.9,0.7c0.7,0.5,1,1.3,1,2.3c0,1-0.4,1.7-1,2.3s-1.6,0.8-2.9,0.8h-3.3V477.1z M350,492.2
		c-0.6,0.6-1.6,0.9-2.8,0.9h-4v-6.6h4.2c1.2,0,2.1,0.3,2.7,0.9c0.6,0.6,0.9,1.4,0.9,2.5C351,490.8,350.6,491.6,350,492.2z"/>
	<path d="M373.1,473.4l0,15.5c0,1.5-0.3,2.6-0.9,3.4c-0.6,0.8-1.4,1.2-2.5,1.2c-1,0-1.8-0.4-2.4-1.2s-0.8-1.9-0.8-3.4l0-15.5h-4.5
		l0,15.5c0,1.3,0.2,2.5,0.6,3.5c0.4,1,0.9,1.9,1.6,2.6c0.7,0.7,1.5,1.2,2.4,1.6c0.9,0.4,2,0.5,3.2,0.5c1.2,0,2.4-0.2,3.3-0.5
		c1-0.4,1.8-0.9,2.5-1.6c0.7-0.7,1.2-1.6,1.6-2.6c0.4-1,0.5-2.2,0.5-3.5l0-15.5H373.1z"/>
	<path d="M399,485.9c0.5-0.4,1-0.9,1.3-1.4c0.4-0.5,0.7-1.1,0.8-1.8c0.2-0.7,0.3-1.4,0.3-2.3c0-1.2-0.2-2.2-0.6-3
		c-0.4-0.9-1-1.6-1.7-2.2c-0.7-0.6-1.6-1-2.7-1.3c-1-0.3-2.2-0.5-3.5-0.5h-7.8v23.3h4.5V488h3.4l4.4,8.7h4.8v-0.2l-5-9.6
		C397.9,486.6,398.5,486.3,399,485.9z M395.9,483.4c-0.7,0.6-1.7,1-2.9,1h-3.3v-7.3h3.3c1.3,0,2.3,0.3,3,1c0.7,0.6,1,1.6,1,2.7
		C397,481.9,396.6,482.8,395.9,483.4z"/>
	<path d="M416.1,484.8v3.4h3.9l0,4.2c-0.1,0.1-0.3,0.3-0.5,0.4c-0.2,0.1-0.5,0.2-0.8,0.3s-0.6,0.2-1,0.2c-0.3,0.1-0.7,0.1-1,0.1
		c-1.5,0-2.6-0.6-3.3-1.8c-0.7-1.2-1.1-2.8-1.1-5v-3.2c0-1.1,0.1-2.1,0.3-2.9c0.2-0.8,0.5-1.5,0.9-2.1c0.4-0.6,0.8-1,1.3-1.3
		c0.5-0.3,1-0.4,1.6-0.4c1.2,0,2.1,0.3,2.7,0.9c0.6,0.6,0.9,1.5,1.1,2.7h4.4c-0.1-1.1-0.4-2.1-0.7-3c-0.4-0.9-0.9-1.7-1.6-2.3
		c-0.7-0.6-1.5-1.1-2.5-1.4c-1-0.3-2.1-0.5-3.4-0.5c-1.2,0-2.3,0.2-3.4,0.7c-1,0.5-1.9,1.2-2.7,2.1c-0.8,0.9-1.4,2-1.8,3.3
		c-0.4,1.3-0.6,2.7-0.6,4.4v3.2c0,1.6,0.2,3.1,0.6,4.4c0.4,1.3,1,2.4,1.8,3.3c0.8,0.9,1.7,1.6,2.7,2c1.1,0.5,2.3,0.7,3.6,0.7
		c1,0,1.9-0.1,2.8-0.3c0.9-0.2,1.6-0.4,2.3-0.7c0.7-0.3,1.3-0.6,1.8-1c0.5-0.4,0.9-0.7,1.2-1.1l0-9.2H416.1z"/>
	<path d="M288.4,162.6c1.3,1.4,2.9,2.4,4.7,3.1c1.8,0.7,3.9,1.1,6.2,1.1c2.4,0,4.6-0.4,6.5-1.1c1.9-0.7,3.5-1.7,4.9-3.1
		c1.3-1.4,2.3-3,3-5c0.7-2,1-4.2,1-6.8l0-30.2h-8.7l0,30.2c0,2.9-0.6,5.2-1.7,6.7s-2.8,2.3-4.9,2.3c-2,0-3.6-0.8-4.6-2.3
		c-1.1-1.5-1.6-3.7-1.6-6.7l0-30.2h-8.8l0,30.2c0,2.5,0.4,4.8,1.1,6.8C286.1,159.6,287.1,161.3,288.4,162.6z"/>
	<path d="M374.1,246.1c1.5,1.7,3.3,3.1,5.4,4c2.1,0.9,4.4,1.4,7,1.4c1.9,0,3.7-0.2,5.4-0.5c1.7-0.4,3.2-0.8,4.5-1.4
		c1.3-0.6,2.5-1.2,3.5-1.9c1-0.7,1.8-1.4,2.3-2.1l0-18h-16.3v6.6h7.5l0,8.3c-0.2,0.3-0.6,0.5-1,0.8c-0.4,0.2-1,0.5-1.6,0.6
		s-1.2,0.3-1.9,0.4c-0.7,0.1-1.3,0.2-2,0.2c-2.9,0-5-1.2-6.4-3.4c-1.4-2.3-2.1-5.5-2.1-9.8v-6.3c0-2.2,0.2-4,0.6-5.7
		c0.4-1.6,1-3,1.7-4.1c0.7-1.1,1.5-1.9,2.5-2.5c1-0.6,2-0.9,3.1-0.9c2.3,0,4.1,0.6,5.2,1.8c1.1,1.2,1.8,2.9,2.1,5.3h8.6
		c-0.2-2.2-0.7-4.2-1.5-5.9s-1.8-3.2-3.1-4.5c-1.3-1.2-2.9-2.2-4.8-2.8c-1.9-0.6-4.1-1-6.7-1c-2.4,0-4.5,0.5-6.6,1.4
		c-2,0.9-3.8,2.3-5.3,4s-2.7,3.9-3.5,6.4c-0.8,2.5-1.3,5.4-1.3,8.6v6.2c0,3.2,0.4,6,1.2,8.6C371.4,242.2,372.6,244.3,374.1,246.1z"
		/>
	<path d="M201.7,247.9c1.3,1.2,3,2,4.8,2.6c1.9,0.6,4,0.9,6.3,0.9c2.2,0,4.2-0.4,6.1-1.1c1.9-0.7,3.5-1.7,4.9-3
		c1.4-1.3,2.5-2.8,3.3-4.6c0.8-1.8,1.2-3.8,1.2-5.9l0-31.6h-8.8v31.6c0,1.1-0.2,2.1-0.5,3c-0.3,0.9-0.8,1.7-1.4,2.4
		c-0.6,0.7-1.3,1.2-2.1,1.6c-0.8,0.4-1.8,0.6-2.8,0.6c-2.2,0-3.9-0.5-4.9-1.6c-1.1-1.1-1.6-2.9-1.6-5.3h-8.8c0,2.4,0.4,4.4,1.2,6.2
		C199.3,245.3,200.4,246.8,201.7,247.9z"/>
	<path d="M299.7,307.5c22,0,39.9,17.9,39.9,39.9h84.8L304.9,227.8h0c-1.3-1.4-3.1-2.2-5.1-2.2c-2,0-3.8,0.9-5.2,2.3L175,347.4
		l84.8,0C259.9,325.3,277.7,307.5,299.7,307.5z"/>
	<path d="M416.9,112.5c0.3,0.2,0.6,0.4,0.9,0.5c0.3,0.1,0.7,0.2,1,0.3c0.3,0.1,0.7,0.1,1,0.1c0.7,0,1.4-0.1,2-0.4
		c0.6-0.3,1.2-0.7,1.7-1.2c1-1,1.5-2.3,1.5-3.7c0-1.4-0.6-2.7-1.5-3.7c-0.2-0.3-0.5-0.5-0.8-0.7c-0.3-0.2-0.6-0.4-0.9-0.5
		c-0.3-0.1-0.7-0.2-1-0.3c-1.7-0.4-3.5,0.2-4.7,1.4c-1,1-1.5,2.3-1.5,3.7c0,1.4,0.5,2.7,1.5,3.7
		C416.3,112.1,416.6,112.3,416.9,112.5z"/>
	<path d="M374.8,158.1c1.3,0,2.7-0.5,3.7-1.5c2.1-2,2.1-5.4,0-7.4c-2-2-5.3-2.1-7.4,0c-2,2-2,5.4,0,7.4
		C372.1,157.6,373.4,158.1,374.8,158.1z"/>
	<path d="M329.8,202.9c1.3,0,2.7-0.5,3.7-1.5c2-2,2-5.4,0-7.4c-2-2-5.4-2.1-7.4,0c-2.1,2-2.1,5.4,0,7.4
		C327.1,202.4,328.5,202.9,329.8,202.9z"/>
	<path d="M344.8,188c1.3,0,2.7-0.5,3.7-1.5c2-2,2.1-5.3,0-7.4c-2-2.1-5.4-2.1-7.4,0c-2,2-2.1,5.3,0,7.4
		C342.1,187.5,343.5,188,344.8,188z"/>
	<path d="M389.8,143.2c1.3,0,2.7-0.5,3.7-1.5c2-2,2-5.3,0-7.4c-2-2-5.3-2-7.4,0c-2,2-2,5.3,0,7.4
		C387.1,142.7,388.4,143.2,389.8,143.2z"/>
	<path d="M310.5,209.6c-0.2,0.3-0.3,0.6-0.5,0.9c-0.1,0.3-0.2,0.7-0.3,1c-0.1,0.3-0.1,0.7-0.1,1c0,0.3,0,0.7,0.1,1
		c0.1,0.3,0.2,0.7,0.3,1c0.1,0.3,0.3,0.6,0.5,0.9c0.2,0.3,0.4,0.6,0.7,0.8c1,1,2.3,1.5,3.7,1.5c1.4,0,2.7-0.5,3.7-1.5
		c0.2-0.2,0.5-0.5,0.7-0.8c0.2-0.3,0.4-0.6,0.5-0.9c0.1-0.3,0.2-0.6,0.3-1c0.1-0.3,0.1-0.7,0.1-1c0-1.4-0.6-2.7-1.5-3.7
		c-0.2-0.2-0.5-0.4-0.8-0.7c-0.3-0.2-0.6-0.3-0.9-0.5c-0.3-0.1-0.6-0.2-1-0.3c-1.7-0.3-3.5,0.2-4.7,1.4
		C310.9,209.1,310.7,209.4,310.5,209.6z"/>
	<path d="M279.5,214.6c0.1,0.3,0.3,0.6,0.5,0.9c0.2,0.3,0.4,0.5,0.7,0.8c0.3,0.2,0.5,0.4,0.8,0.7c0.3,0.2,0.6,0.3,0.9,0.5
		c0.3,0.1,0.7,0.2,1,0.3c0.3,0.1,0.7,0.1,1,0.1c1.4,0,2.7-0.5,3.7-1.5c0.2-0.3,0.5-0.5,0.7-0.8c0.2-0.3,0.4-0.6,0.5-0.9
		c0.1-0.3,0.2-0.7,0.3-1c0.1-0.3,0.1-0.7,0.1-1c0-0.3-0.1-0.7-0.1-1c-0.1-0.3-0.2-0.7-0.3-1c-0.1-0.3-0.3-0.6-0.5-0.9
		c-0.2-0.3-0.4-0.5-0.7-0.8c-1.9-2-5.5-2-7.4,0c-0.2,0.2-0.4,0.5-0.7,0.8c-0.2,0.3-0.3,0.6-0.5,0.9c-0.1,0.3-0.2,0.6-0.3,1
		c-0.1,0.3-0.1,0.7-0.1,1c0,0.4,0,0.7,0.1,1C279.3,213.9,279.4,214.3,279.5,214.6z"/>
	<path d="M210,143.2c1.3,0,2.7-0.5,3.7-1.5c2-2,2.1-5.4,0-7.4c-2.1-2.1-5.4-2.1-7.4,0c-2,2-2.1,5.4,0,7.4
		C207.3,142.7,208.7,143.2,210,143.2z"/>
	<path d="M224.9,158.1c1.3,0,2.7-0.5,3.7-1.5c2-2,2-5.4,0-7.4c-2-2-5.3-2-7.4,0c-2.1,2-2.1,5.3,0,7.4
		C222.2,157.6,223.5,158.1,224.9,158.1z"/>
	<path d="M254.6,188c1.3,0,2.7-0.5,3.7-1.5c2-2,2-5.3,0-7.4c-2-2-5.3-2-7.4,0c-2,2-2,5.4,0,7.4C251.9,187.5,253.3,188,254.6,188z"/>
	<path d="M269.5,202.9c1.3,0,2.7-0.5,3.7-1.5c2-2,2-5.3,0-7.4c-2-2.1-5.3-2.1-7.4,0c-2,2-2,5.4,0,7.4
		C266.8,202.4,268.1,202.9,269.5,202.9z"/>
	<path d="M176.5,111.9c1,1,2.3,1.5,3.7,1.5c0.7,0,1.4-0.2,2-0.4c0.6-0.3,1.2-0.7,1.7-1.2c0.5-0.5,0.9-1.1,1.2-1.7
		c0.3-0.6,0.4-1.3,0.4-2c0-0.3,0-0.7-0.1-1c-0.1-0.3-0.2-0.7-0.3-1c-0.1-0.3-0.3-0.6-0.5-0.9c-0.2-0.3-0.4-0.6-0.7-0.8
		c-1.2-1.2-3-1.8-4.7-1.4c-0.3,0.1-0.7,0.2-1,0.3c-0.3,0.1-0.6,0.3-0.9,0.5c-0.3,0.2-0.5,0.4-0.8,0.7c-1,1-1.5,2.3-1.5,3.7
		c0,0.7,0.1,1.4,0.4,2S176,111.4,176.5,111.9z"/>
</g>
</svg>
